<?xml version="1.0" encoding="UTF-8"?>
<svg id="Layer_6" data-name="Layer 6" xmlns="http://www.w3.org/2000/svg" xmlns:xlink="http://www.w3.org/1999/xlink" viewBox="0 0 1152 1152">
  <defs>
    <style>
      .cls-1 {
        fill: #075b9d;
      }

      .cls-2 {
        fill: #16b9fd;
      }

      .cls-3 {
        fill: #5cc8f8;
      }

      .cls-4 {
        fill: url(#linear-gradient);
      }
    </style>
    <linearGradient id="linear-gradient" x1="742.93" y1="859.13" x2="898.54" y2="952.06" gradientUnits="userSpaceOnUse">
      <stop offset="0" stop-color="#000" stop-opacity=".4"/>
      <stop offset="1" stop-color="#124793" stop-opacity="0"/>
    </linearGradient>
  </defs>
  <path class="cls-1" d="M960,950.73h-230.38l-25.77-25.77c52.52-20.63,99.23-52.79,137.07-93.33l88.98,88.98,30.1,30.13Z"/>
  <polygon class="cls-4" points="929.9 920.6 703.85 924.95 833.13 823.83 929.9 920.6"/>
  <path class="cls-2" d="M840.91,831.61c-37.83,40.55-84.56,72.7-137.06,93.34l-137.02-137.04c63.22,0,119.95-27.7,158.73-71.61l107.55,107.52,7.79,7.79Z"/>
  <path class="cls-3" d="M941.6,571.18v216.74l-41.11-41.09-121.81-121.81v-48.99c0-37.75-9.88-73.22-27.18-103.91-36.33-64.49-105.43-108.01-184.69-108.01-117.01,0-211.92,94.87-211.92,211.92s94.91,211.89,211.92,211.89h.02l137.02,137.04c-42.45,16.71-88.68,25.86-137.04,25.86-206.99,0-374.82-167.82-374.82-374.78s167.82-374.84,374.82-374.84c122.32,0,230.97,58.62,299.38,149.31,46.46,61.56,74.35,137.86,75.41,220.67Z"/>
</svg>