<?xml version="1.0" encoding="UTF-8"?>
<svg id="Layer_6" data-name="Layer 6" xmlns="http://www.w3.org/2000/svg" xmlns:xlink="http://www.w3.org/1999/xlink" viewBox="0 0 512 512">
  <defs>
    <style>
      .cls-1 {
        fill: #075b9d;
      }

      .cls-2 {
        fill: #16b9fd;
      }

      .cls-3 {
        fill: #5cc8f8;
      }

      .cls-4 {
        fill: url(#linear-gradient);
      }
    </style>
    <linearGradient id="linear-gradient" x1="330.46" y1="403.58" x2="411.58" y2="452.03" gradientUnits="userSpaceOnUse">
      <stop offset="0" stop-color="#000" stop-opacity=".4"/>
      <stop offset="1" stop-color="#124793" stop-opacity="0"/>
    </linearGradient>
  </defs>
  <g>
    <path class="cls-3" d="M434.03,253.47v2.53h-84.93c0-19.68-5.15-38.17-14.17-54.17-18.94-33.62-54.96-56.31-96.28-56.31-61,0-110.48,49.46-110.48,110.48s49.48,110.46,110.48,110.46h.01l71.43,71.44c-22.13,8.71-46.23,13.48-71.44,13.48-107.91,0-195.4-87.49-195.4-195.38S130.74,60.59,238.65,60.59c63.77,0,120.41,30.56,156.07,77.84,24.22,32.09,38.76,71.87,39.31,115.04Z"/>
    <path class="cls-1" d="M443.62,451.34h-120.1l-13.44-13.44c27.38-10.76,51.73-27.52,71.45-48.66l46.39,46.39,15.69,15.71Z"/>
    <polygon class="cls-4" points="427.93 435.63 310.09 437.9 377.48 385.18 427.93 435.63"/>
    <path class="cls-2" d="M381.54,389.24c-19.72,21.14-44.08,37.9-71.45,48.66l-71.43-71.44c32.96,0,62.53-14.44,82.76-37.33l56.07,56.05,4.06,4.06Z"/>
  </g>
  <polygon class="cls-3" points="434.03 256 434.03 366.46 412.6 345.04 349.1 281.54 349.1 256 434.03 256"/>
</svg>